# xmcd
#
# Track frame offsets:
#	150
#	14552
#	29062
#	41867
#	55539
#	67518
#	82673
#	96655
#	110086
#	121900
#	134296
#	148961
#
# Disc length: 2118 seconds
#
# Revision: 0
# Processed by: cddbd v1.5.2PL0 Copyright (c) Steve Scherf et al.
# Submitted via: EasyCDDAExtractor 12.0.1.1
#
DISCID=a808440c
DTITLE=Various Artist - OLA THIMIZOUN TON MANO LOIZO
DYEAR=2009
DGENRE=Ellinika entexna
TTITLE0=ORGANIKO - TO ZEBEKIKO TIS EUDOKIAS
TTITLE1=GIANNIS PARIOS  - MANA DE FITEPSAME
TTITLE2=LITSA SAKELLARIOU - AX XELIDONI MOU
TTITLE3=ALIKI BOUGIOUKLAKI - NANOURISMA(THA KENTISW)
TTITLE4=Dimitris Papamixail - Tzamaika
TTITLE5=Dimitris Papamixail - TOY BARKARI GIOS
TTITLE6=DWRA SITZANI-NIKOS DADINOPOULOS - KOUTSI KITHARA
TTITLE7=ALEKA ALIBERTI - EIN' H AGAPI MAS MEGALI
TTITLE8=ALEKA MAVILI - AUTO T' AGORI
TTITLE9=GIANNHS KALATZHS - TO LEVENTOPAIDO(LEVENTOPAIDO ARISTO)
TTITLE10=ELENI RODA - H DOULEIA KANEI TOUS ANDRES
TTITLE11=ORGANIKO - LAIKOS XOROS SE 9/8
EXTD=
EXTT0=
EXTT1=
EXTT2=
EXTT3=
EXTT4=
EXTT5=
EXTT6=
EXTT7=
EXTT8=
EXTT9=
EXTT10=
EXTT11=
PLAYORDER=
